<svg width="28" height="28" viewBox="0 0 28 28" fill="none" xmlns="http://www.w3.org/2000/svg">
<path fill-rule="evenodd" clip-rule="evenodd" d="M14 0C15.5141 0 16.9721 0.240353 18.3378 0.684994L15.687 5.38682H18.8198L20.7907 1.75426C25.0904 4.14374 28 8.73207 28 14C28 21.732 21.732 28 14 28C6.26801 28 0 21.732 0 14C0 6.26799 6.26801 0 14 0ZM12.6931 7.97115L12.7737 7.89063H15.0293L15.1098 7.97115L19.3793 19.0881L19.2988 19.1686H16.8015L16.7209 19.0881L15.9154 16.8325H11.8875L11.0819 19.0881L11.0014 19.1686H8.50413L8.42354 19.0881L12.6931 7.97115ZM15.1904 14.5769L13.9015 10.7907L12.6126 14.5769H15.1904Z" fill="white"/>
</svg>
