<svg width="120" height="136" viewBox="0 0 120 136" fill="none" xmlns="http://www.w3.org/2000/svg">
<path d="M61.3118 58.6781L107.531 78.489L62.8641 0H59.7593L15.0977 78.489L61.3118 58.6781ZM61.3118 8.0551L95.0499 67.3351L61.3118 52.8794L27.5737 67.3351L61.3118 8.0551Z" fill="#282828"/>
<path d="M94.8633 27.1562L91.7585 31.493C106.102 41.747 114.662 58.3855 114.662 75.9904C114.662 106.134 90.1385 130.658 59.9945 130.658C29.8505 130.658 5.32668 106.134 5.32668 75.9904C5.32668 58.3841 13.8876 41.7526 28.2306 31.493L25.1258 27.1562C9.40434 38.4059 0 56.5011 0 75.9908C0 109.154 26.8422 135.991 60 135.991C93.1636 135.991 120 109.149 120 75.9908C120 56.4953 110.59 38.4052 94.8633 27.1562Z" fill="#282828"/>
</svg>
