<svg width="26" height="25" viewBox="0 0 26 25" fill="none" xmlns="http://www.w3.org/2000/svg">
<path d="M25.2393 4.52878C25.2393 4.51563 25.2382 4.50367 25.237 4.49172C25.2358 4.47976 25.2334 4.469 25.231 4.45705L25.2286 4.44988C25.2262 4.44151 25.2226 4.43194 25.219 4.42357L25.2166 4.4164C25.2119 4.40564 25.2071 4.39488 25.2011 4.38532C25.1951 4.37576 25.1891 4.365 25.182 4.35424L25.1772 4.34826L25.176 4.34945C25.17 4.34109 25.164 4.33391 25.1581 4.32794L25.1521 4.32196C25.1437 4.31359 25.1353 4.30642 25.127 4.29924C25.1174 4.29207 25.1066 4.2849 25.0959 4.27892H25.0935L17.7482 0.0385558C17.6586 -0.0128519 17.5462 -0.0128519 17.4565 0.0385558L10.1112 4.27892H10.1089C10.0981 4.2849 10.0873 4.29207 10.0778 4.29924L10.0754 4.30163C10.067 4.30761 10.0586 4.31598 10.0515 4.32315L10.0455 4.33033V4.32913C10.0395 4.33511 10.0335 4.34109 10.0276 4.34826L10.0216 4.35543C10.0156 4.365 10.0084 4.37456 10.0025 4.38532C9.99648 4.39488 9.9917 4.40445 9.98691 4.41521L9.98333 4.42358C9.97974 4.43195 9.97735 4.44031 9.97496 4.44868L9.97257 4.45705V4.45825C9.97018 4.46781 9.96778 4.47857 9.96659 4.48813V4.49053C9.96539 4.50248 9.9642 4.51444 9.9642 4.52639V7.61814L8.53793 6.79443C8.44707 6.74182 8.33589 6.74182 8.24503 6.79443L0.899759 11.0348H0.897368H0.898563C0.887804 11.0408 0.877044 11.0479 0.867481 11.0551H0.866285C0.856721 11.0611 0.848352 11.0683 0.841179 11.0766L0.835202 11.0826C0.829224 11.0898 0.823246 11.097 0.816073 11.1041L0.811291 11.1101C0.804118 11.1197 0.79814 11.1292 0.792163 11.14C0.786185 11.1496 0.781403 11.1603 0.776621 11.1711L0.77423 11.1783C0.770643 11.1866 0.767057 11.1962 0.764666 11.2046L0.762275 11.2117C0.759884 11.2237 0.757493 11.2344 0.756297 11.2464C0.753906 11.2584 0.753906 11.2715 0.753906 11.2835V19.7694C0.753906 19.8746 0.808901 19.9714 0.899759 20.0228L8.24503 24.2632H8.24742C8.25698 24.2692 8.26774 24.274 8.2785 24.2787H8.28089C8.29046 24.2823 8.30122 24.2859 8.31198 24.2895L8.32035 24.2919C8.32871 24.2943 8.33708 24.2955 8.34665 24.2967H8.35502C8.37893 24.3003 8.40164 24.3003 8.42555 24.2967H8.43392C8.44229 24.2955 8.45185 24.2943 8.46022 24.2919L8.46859 24.2895C8.47935 24.2859 8.48891 24.2835 8.49967 24.2787H8.50206C8.51282 24.274 8.52239 24.2692 8.53315 24.2632H8.53554L15.8808 20.0228C15.9705 19.9714 16.0267 19.8746 16.0267 19.7694V16.6801L17.4529 17.5038H17.4553C17.4661 17.5098 17.4768 17.5146 17.4876 17.5193C17.4972 17.5241 17.5079 17.5277 17.5187 17.5301L17.5271 17.5325C17.5366 17.5349 17.545 17.5361 17.5545 17.5385H17.5629H17.5617C17.5856 17.5409 17.6083 17.5409 17.6323 17.5385H17.6406C17.6502 17.5385 17.6586 17.5349 17.6681 17.5325L17.6765 17.5301H17.6753C17.6861 17.5277 17.6956 17.5241 17.7064 17.5193C17.7171 17.5146 17.7279 17.5098 17.7387 17.5038H17.741L25.0863 13.2634C25.1796 13.2132 25.2381 13.1164 25.2393 13.01L25.2393 4.52878ZM17.6024 0.626605L24.3619 4.52878L21.9326 5.93111L15.1731 2.02894L17.6024 0.626605ZM20.9081 7.02984V7.00593V6.99756C20.9081 6.99039 20.9057 6.98322 20.9045 6.97605V6.96648C20.9045 6.9605 20.9009 6.95453 20.8997 6.94735C20.8973 6.94138 20.8973 6.94018 20.8961 6.93659C20.8949 6.93301 20.8925 6.92822 20.8913 6.92464V6.92583C20.8866 6.91149 20.8794 6.89714 20.8722 6.8828C20.8639 6.86965 20.8555 6.85769 20.8459 6.84574L20.8376 6.83498L20.816 6.81346L20.8077 6.80628C20.8029 6.8015 20.7981 6.79792 20.7921 6.79433L20.7897 6.79194L20.7838 6.78835C20.7778 6.78477 20.7718 6.78118 20.7658 6.77759L20.761 6.77401L13.8568 2.78828L14.5884 2.36746L21.6408 6.43827V9.82627L20.9104 10.2483V7.03473C20.9092 7.03234 20.9092 7.03115 20.9092 7.02875L20.9081 7.02984ZM17.6024 8.43218L10.8429 4.52878L13.2722 3.12645L20.0317 7.02862L17.6024 8.43218ZM8.39205 7.38609L10.8213 8.78842L4.06186 12.6906L1.63257 11.2883L8.39205 7.38609ZM8.39205 15.1904L5.96276 13.7881L12.7222 9.88471L15.1515 11.287L8.39205 15.1904ZM5.23603 13.5311L5.23125 13.5346C5.22528 13.5382 5.2181 13.543 5.21212 13.5466L5.20734 13.5502L5.20495 13.5514C5.19897 13.5562 5.19419 13.5597 5.18821 13.5645L5.18104 13.5705L5.15952 13.592C5.15594 13.5956 5.15354 13.5992 5.15115 13.6028V13.604C5.14039 13.6159 5.13202 13.6279 5.12366 13.641C5.11648 13.6554 5.11051 13.6697 5.10453 13.6841C5.10453 13.6877 5.10094 13.6912 5.09975 13.696C5.09855 13.6996 5.09735 13.7032 5.09616 13.7068H5.09735C5.09496 13.7128 5.09377 13.7187 5.09257 13.7247L5.09138 13.7343C5.09138 13.7415 5.08899 13.7486 5.08779 13.7546V13.763V13.7869V13.7929V17.0064L4.35733 16.5844V13.1976L11.406 9.12559L12.1377 9.54761L5.23603 13.5311ZM1.33998 11.794L3.76928 13.1963L3.77047 16.7542C3.77047 16.8582 3.82547 16.955 3.91632 17.0076L5.2326 17.7668C5.32226 17.8194 5.43464 17.8194 5.5255 17.7668C5.61516 17.7142 5.67135 17.6185 5.67135 17.5133V14.2949L8.10065 15.6972V23.504L1.33994 19.6006L1.33998 11.794ZM8.68525 23.5017V15.6974L15.446 11.7952V19.5995L8.68525 23.5017ZM16.0305 11.2847C16.0305 11.2727 16.0305 11.2608 16.0281 11.2488V11.2464C16.0269 11.2369 16.0245 11.2261 16.0222 11.2165L16.0198 11.2082C16.0174 11.1986 16.015 11.1902 16.0114 11.1819L16.0078 11.1735C16.003 11.1627 15.9982 11.1532 15.9923 11.1436C15.9863 11.134 15.9803 11.1245 15.9731 11.1125L15.9672 11.1054C15.9612 11.0982 15.9564 11.091 15.9492 11.085L15.9421 11.0779C15.9337 11.0707 15.9265 11.0635 15.9169 11.0563L15.9146 11.0539L15.9158 11.0551C15.9062 11.048 15.8954 11.0408 15.8847 11.0348H15.8823L10.549 7.95623V5.03557L17.3097 8.93897V16.7433L16.0293 16.0057V11.2857L16.0305 11.2847ZM17.8943 16.7434V8.93909L20.3236 7.53676V10.754C20.3236 10.8592 20.3798 10.956 20.4695 11.0074C20.5603 11.06 20.6727 11.06 20.7624 11.0074L22.0786 10.2483C22.1695 10.1957 22.2245 10.1 22.2245 9.99482V6.43818L24.6538 5.03585V12.8402L17.8943 16.7434Z" fill="#6E4D31"/>
</svg>
