<svg width="24" height="24" viewBox="0 0 24 24" fill="none" xmlns="http://www.w3.org/2000/svg">
<path d="M12.0005 14.2505C12.6221 14.2505 13.1259 13.7466 13.1259 13.125C13.1259 12.5034 12.6221 11.9995 12.0005 11.9995C11.3789 11.9995 10.875 12.5034 10.875 13.125C10.875 13.7466 11.3789 14.2505 12.0005 14.2505Z" stroke="white" stroke-width="1.125" stroke-linecap="round" stroke-linejoin="round"/>
<path d="M14.4482 10.7998L12.8555 12.3926" stroke="white" stroke-width="1.125" stroke-linecap="round" stroke-linejoin="round"/>
<path d="M11.9984 18.7513C15.1063 18.7513 17.6258 16.2318 17.6258 13.1239C17.6258 10.016 15.1063 7.49658 11.9984 7.49658C8.89054 7.49658 6.37109 10.016 6.37109 13.1239C6.37109 16.2318 8.89054 18.7513 11.9984 18.7513Z" stroke="white" stroke-width="1.125" stroke-linecap="round" stroke-linejoin="round"/>
<path d="M12 7.49752V5.24658" stroke="white" stroke-width="1.125" stroke-linecap="round" stroke-linejoin="round"/>
<path d="M13.3136 5.24658H10.6875" stroke="white" stroke-width="1.125" stroke-linecap="round" stroke-linejoin="round"/>
<path d="M15.9961 9.16598L17.0576 8.10449" stroke="white" stroke-width="1.125" stroke-linecap="round" stroke-linejoin="round"/>
<path d="M8.0029 9.16598L6.94141 8.10449" stroke="white" stroke-width="1.125" stroke-linecap="round" stroke-linejoin="round"/>
</svg>
