<svg width="24" height="24" viewBox="0 0 24 24" fill="none" xmlns="http://www.w3.org/2000/svg">
<path d="M12 14.375L11.512 14.7654C11.6306 14.9137 11.8101 15 12 15C12.1899 15 12.3694 14.9137 12.488 14.7654L12 14.375ZM14.988 11.6404C15.2037 11.3709 15.16 10.9776 14.8904 10.762C14.6209 10.5463 14.2276 10.59 14.012 10.8596L14.988 11.6404ZM9.98804 10.8596C9.77241 10.59 9.3791 10.5463 9.10957 10.762C8.84003 10.9776 8.79633 11.3709 9.01196 11.6404L9.98804 10.8596ZM12.488 14.7654L14.988 11.6404L14.012 10.8596L11.512 13.9846L12.488 14.7654ZM12.488 13.9846L9.98804 10.8596L9.01196 11.6404L11.512 14.7654L12.488 13.9846ZM12.625 14.375V5H11.375V14.375H12.625Z" fill="white"/>
<rect x="7" y="18.125" width="10" height="1.25" rx="0.625" fill="white"/>
</svg>
