<svg width="24" height="24" viewBox="0 0 24 24" fill="none" xmlns="http://www.w3.org/2000/svg">
<path fill-rule="evenodd" clip-rule="evenodd" d="M7.13933 6.33154C5.79816 6.33154 4.71094 7.41877 4.71094 8.75993V15.2404C4.71094 16.5815 5.79816 17.6688 7.13933 17.6688H16.859C18.2002 17.6688 19.2874 16.5815 19.2874 15.2404V8.75993C19.2874 7.41877 18.2002 6.33154 16.859 6.33154H7.13933ZM8.67372 9.6613C8.38831 9.48534 8.0143 9.57412 7.83833 9.85946C7.66237 10.1449 7.75109 10.5189 8.0365 10.6948L10.4055 12.1555C11.3826 12.7579 12.6158 12.7579 13.5929 12.1555L15.9619 10.6948C16.2474 10.5189 16.336 10.1449 16.1601 9.85946C15.9841 9.57412 15.6102 9.48534 15.3247 9.6613L12.9557 11.1219C12.3692 11.4834 11.6292 11.4834 11.0427 11.1219L8.67372 9.6613Z" fill="white"/>
</svg>
