<svg width="25" height="24" viewBox="0 0 25 24" fill="none" xmlns="http://www.w3.org/2000/svg">
<path d="M11.5171 14.7765L12.7288 14.7835V3H11.5181L11.5171 14.7765ZM17.17 8.69049H20.7456V6.6089H17.17V8.69049ZM19.5631 9.20835L18.3513 9.21543V20.999H19.5621L19.5631 9.20835ZM18.3513 6.09106L19.5631 6.08397V3.00112H18.3524L18.3513 6.09106ZM4.68149 10.4414L5.89322 10.4343V3.00112H4.6825L4.68149 10.4414ZM5.89322 13.5597L4.68149 13.5668V21H5.89221L5.89322 13.5597ZM7.07561 10.9593H3.5V13.0408H7.07561V10.9593ZM12.7286 17.9101L11.5169 17.9171V21H12.7276L12.7286 17.9101ZM13.911 15.3106H10.3354V17.3922H13.911V15.3106Z" fill="#6E4D31"/>
</svg>
