<svg width="24" height="24" viewBox="0 0 24 24" fill="none" xmlns="http://www.w3.org/2000/svg">
<path d="M18.8524 5.14846C18.6994 4.99548 18.4626 4.95616 18.2677 5.05188L5.28029 11.484C5.07261 11.5866 4.96066 11.8191 5.00936 12.0464C5.05722 12.2738 5.25636 12.4379 5.49053 12.4446L11.3809 12.6173L11.5536 18.5077C11.5604 18.7393 11.7245 18.9385 11.9519 18.9889C11.9894 18.9974 12.0237 19 12.0613 19C12.2519 19 12.4288 18.8932 12.5159 18.718L18.9481 5.73049C19.0447 5.53563 19.007 5.29972 18.8515 5.14589L18.8524 5.14846ZM12.5099 16.4488L12.3834 12.1123C12.3749 11.8431 12.1604 11.6285 11.8912 11.62L7.55462 11.4935L17.3739 6.62968L12.5099 16.4488Z" fill="white"/>
</svg>
