<svg width="54" height="54" viewBox="0 0 54 54" fill="none" xmlns="http://www.w3.org/2000/svg">
<g clip-path="url(#clip0_341_2980)">
<path d="M42.8601 14.9082L42.8535 14.9146C42.9948 15.3059 43.1264 15.7022 43.2391 16.1063C43.1247 15.7017 43.002 15.3005 42.8601 14.9082Z" fill="#4285F4"/>
<path d="M26.9987 3.76312L15.0664 8.70632L21.922 15.5621C23.262 14.2129 25.0831 13.4513 26.9846 13.4448C28.8861 13.4383 30.7124 14.1874 32.0616 15.5274C33.4108 16.8673 34.1724 18.6884 34.1789 20.5899C34.1854 22.4914 33.4363 24.3177 32.0963 25.6669L42.1862 15.5756L42.8477 14.9141C41.6743 11.6506 39.5226 8.82851 36.6862 6.83288C33.8498 4.83726 30.4668 3.76526 26.9987 3.76312Z" fill="#6E4D31"/>
<path d="M27 27.7987C25.5824 27.7984 24.1967 27.3781 23.0179 26.5908C21.8391 25.8035 20.92 24.6845 20.3768 23.3751C19.8336 22.0658 19.6906 20.6248 19.9658 19.2342C20.2411 17.8436 20.9223 16.5658 21.9233 15.5621L15.0677 8.7063C13.4984 10.2714 12.2539 12.1313 11.4056 14.1789C10.5574 16.2266 10.1222 18.4217 10.125 20.6381C10.125 28.0727 13.9474 32.7321 18.4444 37.5131C18.7459 37.8216 18.9969 38.1631 19.2812 38.4827L32.0401 25.7237C30.7002 27.0542 28.8882 27.8002 27 27.7987Z" fill="#6E4D31"/>
<path d="M27 3.76312C22.5245 3.76312 18.2323 5.54102 15.0676 8.7057C11.9029 11.8704 10.125 16.1626 10.125 20.6381C10.1216 22.6178 10.4322 24.5854 11.0454 26.4678L32.7306 4.78338C30.8943 4.11248 28.955 3.76721 27 3.76312Z" fill="#6E4D31"/>
<path d="M28.5246 49.14C30.0574 44.8752 32.364 40.9298 35.3286 37.502C40.1624 32.5905 43.8789 28.0733 43.8789 20.6381C43.875 18.6832 43.5301 16.744 42.8595 14.9077L19.2852 38.4821C21.9992 41.5671 24.0607 45.1696 25.3456 49.0725C25.4535 49.405 25.6621 49.6957 25.9426 49.9042C26.2232 50.1127 26.5616 50.2288 26.9111 50.2362C27.2606 50.2436 27.6037 50.142 27.8928 49.9456C28.1819 49.7492 28.4027 49.4676 28.5246 49.14Z" fill="#6E4D31"/>
<path d="M25.3412 49.0725C24.9959 48.0559 24.6074 47.0678 24.1758 46.1082C24.602 47.0706 24.9959 48.0551 25.3412 49.0725Z" fill="white"/>
<path d="M28.7695 48.5561C29.1651 47.5582 29.5904 46.5779 30.0454 45.6151C29.5876 46.576 29.1651 47.5581 28.7695 48.5561Z" fill="white"/>
<path d="M31.5219 42.7923C31.036 43.6288 30.5938 44.4913 30.1719 45.3644C30.5938 44.4904 31.0377 43.6298 31.5219 42.7923Z" fill="white"/>
<path d="M15.0677 8.7063C13.4984 10.2714 12.2539 12.1313 11.4056 14.1789C10.5574 16.2266 10.1222 18.4217 10.125 20.6381C10.1216 22.6178 10.4322 24.5854 11.0454 26.4677L21.9375 15.5756L15.0677 8.7063Z" fill="#6E4D31"/>
</g>
<defs>
<clipPath id="clip0_341_2980">
<rect width="54" height="54" fill="white"/>
</clipPath>
</defs>
</svg>
