<svg width="24" height="24" viewBox="0 0 24 24" fill="none" xmlns="http://www.w3.org/2000/svg">
<path d="M12 19L11.7413 18.6524C11.7292 18.636 10.555 17.0618 8.82684 15.58C7.12814 14.1228 4.5625 11.921 4.5625 9.07833C4.5625 6.75354 6.23088 5 8.44293 5C10.6277 5 11.5838 6.31058 12 7.44579C12.4163 6.31058 13.3723 5 15.5571 5C17.7691 5 19.4375 6.75359 19.4375 9.07833C19.4375 11.921 16.8707 14.1228 15.1732 15.58C13.4452 17.0619 12.2698 18.6361 12.2587 18.6524L12 19ZM8.44293 5.65637C6.56941 5.65637 5.20924 7.09514 5.20924 9.07838C5.20924 11.6165 7.63754 13.7001 9.24437 15.0784C10.5662 16.2116 11.5544 17.3714 12 17.9252C12.4457 17.3715 13.434 16.2116 14.7556 15.0784C16.3624 13.7001 18.7908 11.6154 18.7908 9.07838C18.7908 7.09508 17.4306 5.65637 15.5571 5.65637C12.3598 5.65637 12.3234 8.93898 12.3234 9.07838L11.6766 9.07941C11.6756 8.93994 11.6281 5.65637 8.44293 5.65637Z" fill="white"/>
<path d="M8.44293 5.65637C6.56941 5.65637 5.20924 7.09514 5.20924 9.07838C5.20924 11.6165 7.63754 13.7001 9.24437 15.0784C10.5662 16.2116 11.5544 17.3714 12 17.9252C12.4457 17.3715 13.434 16.2116 14.7556 15.0784C16.3624 13.7001 18.7908 11.6154 18.7908 9.07838C18.7908 7.09508 17.4306 5.65637 15.5571 5.65637C12.3598 5.65637 12.3234 8.93898 12.3234 9.07838L11.6766 9.07941C11.6756 8.93994 11.6281 5.65637 8.44293 5.65637Z" fill="white"/>
</svg>
