<svg width="118" height="37" viewBox="0 0 118 37" fill="none" xmlns="http://www.w3.org/2000/svg">
<path d="M0 36.0109V0.389541H3.28945V32.7647H9.65195V36.0109H0Z" fill="#6E4D31"/>
<path d="M11.8492 6.05952C11.8492 2.01984 13.7103 0 17.4326 0C21.1837 0 23.0593 2.01984 23.0593 6.05952V30.3409C23.0593 34.3806 21.1837 36.4004 17.4326 36.4004C13.7103 36.4004 11.8492 34.3806 11.8492 30.3409V6.05952ZM19.7699 6.05952C19.7699 4.24166 18.9908 3.33273 17.4326 3.33273C15.9033 3.33273 15.1387 4.24166 15.1387 6.05952V30.3409C15.1387 32.2164 15.9033 33.1542 17.4326 33.1542C18.9908 33.1542 19.7699 32.2164 19.7699 30.3409V6.05952Z" fill="#6E4D31"/>
<path d="M26.8807 36.0109V0.389541H36.5326V3.72227H30.1701V16.404H34.5416V19.6934H30.1701V36.0109H26.8807Z" fill="#6E4D31"/>
<path d="M42.6493 36.0109V3.72227H38.6673V0.389541H49.8774V3.72227H45.8954V36.0109H42.6493Z" fill="#6E4D31"/>
<path d="M59.3126 6.05952C59.3126 2.01984 61.1737 0 64.896 0C68.6472 0 70.5227 2.01984 70.5227 6.05952V30.3409C70.5227 34.3806 68.6472 36.4004 64.896 36.4004C61.1737 36.4004 59.3126 34.3806 59.3126 30.3409V6.05952ZM67.2333 6.05952C67.2333 4.24166 66.4542 3.33273 64.896 3.33273C63.3667 3.33273 62.6021 4.24166 62.6021 6.05952V30.3409C62.6021 32.2164 63.3667 33.1542 64.896 33.1542C66.4542 33.1542 67.2333 32.2164 67.2333 30.3409V6.05952Z" fill="#6E4D31"/>
<path d="M76.8544 25.6664C76.8544 26.6763 77.0853 27.441 77.547 27.9604C78.0086 28.4509 78.7156 28.7539 79.6678 28.8693V7.5744C77.7922 7.74753 76.8544 8.82958 76.8544 10.8206V25.6664ZM82.7408 28.8693C83.6642 28.7539 84.3567 28.4509 84.8184 27.9604C85.2801 27.441 85.5109 26.6763 85.5109 25.6664V10.8206C85.5109 8.82958 84.5875 7.74753 82.7408 7.5744V28.8693ZM73.9978 11.037C73.9978 9.99821 74.0844 9.08928 74.2575 8.3102C74.4306 7.50226 74.7192 6.82417 75.1232 6.27593C75.556 5.72769 76.1331 5.30929 76.8544 5.02074C77.5758 4.70334 78.4847 4.50136 79.5812 4.41479V0.389541H82.8274V4.41479C83.9239 4.50136 84.8328 4.70334 85.5542 5.02074C86.2756 5.30929 86.8382 5.72769 87.2422 6.27593C87.675 6.82417 87.978 7.50226 88.1511 8.3102C88.3242 9.08928 88.4108 9.99821 88.4108 11.037V25.45C88.4108 26.4888 88.3242 27.3977 88.1511 28.1768C87.978 28.9558 87.675 29.6195 87.2422 30.1677C86.8382 30.716 86.2756 31.1488 85.5542 31.4662C84.8328 31.7548 83.9239 31.9423 82.8274 32.0289V36.0109H79.5812V32.0289C78.4847 31.9423 77.5758 31.7548 76.8544 31.4662C76.1331 31.1488 75.556 30.716 75.1232 30.1677C74.7192 29.6195 74.4306 28.9558 74.2575 28.1768C74.0844 27.3977 73.9978 26.4888 73.9978 25.45V11.037Z" fill="#6E4D31"/>
<path d="M92.1591 36.0109V0.389541H95.1456V25.147L99.4738 0.389541H103.326V36.0109H100.296V10.7773L95.3187 36.0109H92.1591Z" fill="#6E4D31"/>
<path d="M115.014 22.9396H118V30.2976C118 32.3751 117.582 33.9189 116.745 34.9288C115.937 35.9099 114.624 36.4004 112.806 36.4004C109.026 36.4004 107.136 34.395 107.136 30.3842V6.14608C107.136 2.04869 109.026 0 112.806 0C116.269 0 118 2.01984 118 6.05952V12.3787H115.014V6.1028C115.014 5.15059 114.855 4.45807 114.537 4.02525C114.22 3.56357 113.643 3.33273 112.806 3.33273C111.248 3.33273 110.469 4.25609 110.469 6.1028V30.3409C110.469 32.2164 111.248 33.1542 112.806 33.1542C113.614 33.1542 114.177 32.9234 114.494 32.4617C114.84 32 115.014 31.2931 115.014 30.3409V22.9396Z" fill="#6E4D31"/>
</svg>
