<svg width="44" height="32" viewBox="0 0 44 32" fill="none" xmlns="http://www.w3.org/2000/svg">
<path d="M43.1585 2.08164C37.7732 1.09572 32.3365 1.27457 26.9964 1.7388C27.0283 1.6515 27.0624 1.57058 27.0943 1.48327C27.1646 1.30866 27.1369 1.11275 27.0241 0.959432C26.9155 0.806113 26.7409 0.725194 26.545 0.742229C24.5113 0.906195 22.4458 1.1234 20.4444 1.32994C19.567 1.42364 18.6897 1.50881 17.8124 1.6025C17.6101 1.61954 17.4312 1.75582 17.361 1.94534C17.2566 2.20088 17.1587 2.45854 17.0565 2.72047C13.3491 3.05266 9.59302 3.27198 5.89211 3.05905C5.73453 3.0484 5.59186 3.10164 5.48326 3.20598C5.37466 3.31032 5.31503 3.45086 5.31503 3.60418V5.67613C4.63362 5.62715 3.94582 5.56753 3.2644 5.49087C3.11109 5.46957 2.95351 5.51855 2.83852 5.62076C2.72353 5.72511 2.65965 5.87204 2.65965 6.02961V8.06324C1.98461 7.97593 1.31382 7.87798 0.643089 7.75234C0.485513 7.72466 0.321547 7.76938 0.19591 7.87159C0.0766621 7.97593 0 8.12712 0 8.29109V30.1624C0 30.4243 0.191647 30.6522 0.447179 30.7012C3.29212 31.2186 6.15419 31.4145 9.00524 31.4145C10.9409 31.4145 12.8701 31.3208 14.7951 31.1845V31.4252C14.7951 31.5785 14.8611 31.719 14.9697 31.8234C15.0741 31.9171 15.204 31.9703 15.3402 31.9703H15.3892C17.1226 31.817 18.8772 31.6381 20.5786 31.4571C21.7562 31.3379 22.938 31.2122 24.1156 31.0972C24.3946 31.0695 24.6054 30.8353 24.6054 30.5585V30.2476C28.9451 29.8174 33.37 29.4788 37.7208 29.7301C37.8677 29.7301 38.0146 29.6875 38.1232 29.5832C38.2318 29.4789 38.2978 29.3319 38.2978 29.185V27.1131C38.9793 27.1556 39.667 27.2174 40.3485 27.2983C40.5018 27.3153 40.653 27.2664 40.7744 27.162C40.8893 27.0577 40.9532 26.9108 40.9532 26.7596V24.7217C41.624 24.8154 42.2947 24.9133 42.9655 25.0326C43.1231 25.0645 43.2935 25.0219 43.4127 24.9176C43.5383 24.8133 43.6086 24.6621 43.6086 24.4981L43.6065 2.61588C43.6065 2.35396 43.4212 2.13037 43.1593 2.08139L43.1585 2.08164ZM6.40014 4.17485C9.80085 4.33243 13.2252 4.14717 16.6105 3.85331C16.4039 4.39205 16.191 4.93295 15.978 5.4717C12.8009 5.73362 9.58961 5.88694 6.40003 5.73362L6.40014 4.17485ZM14.7903 27.4346C12.2286 27.6199 9.6541 27.7242 7.10936 27.6412C6.87512 25.9121 5.5059 24.447 3.74485 24.0424V15.3034C4.54554 15.2651 5.29935 14.9605 5.90407 14.4197C6.55354 13.8426 6.97733 13.0398 7.10293 12.1689C9.66037 12.2498 12.2327 12.1518 14.7904 11.9666L14.7903 27.4346ZM14.7903 10.874C12.0646 11.0763 9.32805 11.1785 6.62419 11.0593C6.47087 11.0593 6.33033 11.1082 6.22173 11.2126C6.11738 11.3169 6.05351 11.4575 6.05351 11.6044C6.05351 12.3838 5.73835 13.1141 5.18685 13.6061C4.65875 14.0745 3.97731 14.2875 3.26187 14.2002C3.10856 14.1831 2.95737 14.2321 2.83599 14.3364C2.721 14.4408 2.65711 14.5877 2.65711 14.7389V24.5023C2.65711 24.7812 2.86367 25.0091 3.13624 25.041C4.77164 25.2326 6.05783 26.5998 6.05358 28.1649C6.05358 28.4587 6.28782 28.6994 6.57742 28.71C7.37811 28.7484 8.18513 28.759 8.98795 28.759C10.9236 28.759 12.8635 28.6653 14.7925 28.5248V30.0899C10.2355 30.4221 5.62937 30.4817 1.08732 29.7023V8.93818C5.65494 9.69625 10.2505 9.64092 14.7925 9.30871V10.8738L14.7903 10.874ZM14.9095 8.20797C11.1979 8.48693 7.45647 8.57423 3.7452 8.19094V6.63218C7.67611 7.03464 11.6284 6.90475 15.5424 6.59385C15.3295 7.13259 15.1225 7.67352 14.9095 8.20797ZM23.551 7.54999C23.5233 7.616 23.5127 7.67989 23.5127 7.75229V30.0603C22.4927 30.1582 21.4791 30.2668 20.4655 30.3712C18.96 30.5287 17.4119 30.6927 15.8808 30.829V8.72979C16.6708 6.70686 17.4608 4.68386 18.253 2.65264C19.0218 2.57598 19.7905 2.49932 20.5592 2.4184C22.2649 2.23953 24.0217 2.05214 25.7593 1.90521C25.0225 3.78123 24.2879 5.66576 23.5511 7.55225L23.551 7.54999ZM24.603 11.0273C26.7899 10.8101 29.0024 10.6121 31.1871 10.5099C31.4384 12.2219 32.7905 13.5465 34.5452 13.7871V22.5305C33.7275 22.6391 32.9588 23.0203 32.3477 23.6271C31.7088 24.266 31.3 25.0986 31.1808 25.9759C28.9896 26.0845 26.7814 26.2761 24.601 26.4933V11.0273H24.603ZM37.207 28.6079C33.0035 28.412 28.764 28.7378 24.603 29.1467V27.5879C26.9623 27.3537 29.3559 27.1407 31.7175 27.0428C32.0071 27.0321 32.2413 26.7915 32.2413 26.4976C32.2413 25.7183 32.5565 24.9559 33.1187 24.398C33.6532 23.8699 34.3452 23.5803 35.0692 23.5803H35.0905C35.2268 23.5803 35.3737 23.5249 35.4781 23.4227C35.5824 23.3184 35.6356 23.1821 35.6356 23.0352V13.2784C35.6356 12.9781 35.395 12.7332 35.0969 12.7332C33.4934 12.7226 32.235 11.496 32.2413 9.93729C32.2413 9.79036 32.1753 9.64769 32.0731 9.54547C31.9645 9.44113 31.8176 9.3879 31.6706 9.39854C29.3219 9.4965 26.9497 9.70305 24.6052 9.93303V8.37427C28.7746 7.95903 33.0226 7.62684 37.2092 7.82276V28.6082L37.207 28.6079ZM39.8603 26.1442C39.3364 26.0888 38.819 26.0569 38.2951 26.0249V7.30504C38.2951 7.01544 38.0652 6.7812 37.7777 6.76629C33.4656 6.51502 29.1111 6.83657 24.8373 7.25606C25.0502 6.71093 25.2632 6.17217 25.4698 5.63129C30.2397 5.17347 35.0865 4.86898 39.8602 5.36937L39.8603 26.1442ZM42.5157 23.8423C41.9982 23.7549 41.4744 23.6847 40.9505 23.6123V4.87765C40.9505 4.59869 40.744 4.36445 40.4714 4.3389C35.6206 3.77245 30.725 4.04504 25.9169 4.49222C26.1298 3.95348 26.3428 3.41258 26.5494 2.87383C31.8474 2.39897 37.222 2.1711 42.5158 3.07612V23.8468L42.5157 23.8423Z" fill="#6E4D31"/>
</svg>
