<svg width="45" height="31" viewBox="0 0 45 31" fill="none" xmlns="http://www.w3.org/2000/svg">
<path d="M2.96808 0.0125261C3.1673 -0.00505156 3.37823 0.010573 3.57942 0.010573L39.6862 0.0125261C40.5007 0.0125261 41.3385 -0.028489 42.1491 0.0379162C43.5573 0.151194 44.8014 1.30744 44.9635 2.72147C45.0182 3.19607 44.9928 3.69215 44.9908 4.17064V26.3517C44.9908 26.8771 45.0162 27.4161 44.9615 27.9396C44.7897 29.5822 43.4889 30.5567 41.9381 30.7227H3.98786C3.58357 30.7247 3.14802 30.7618 2.74568 30.7208C0.310178 30.4649 -0.00231568 28.5236 0.00353421 26.6017L0.00548777 4.34213C0.00548777 3.19955 -0.103885 2.13907 0.653925 1.18204C1.23791 0.443756 2.05405 0.114074 2.96808 0.0125261ZM9.47946 8.19587H4.33306C3.21198 8.19587 2.09285 8.21345 0.973719 8.19587C0.989344 9.67044 0.971766 11.147 0.971766 12.6216L0.977625 22.5804C0.981532 24.0608 0.807709 26.5588 0.997156 27.9633C1.23153 29.7094 2.69437 29.7543 4.00295 29.7465H35.5258L39.8402 29.7445C41.5843 29.7445 44.0472 30.055 44.0198 27.4301L44.012 8.19597C42.7444 8.16862 41.4711 8.19597 40.2035 8.19597L9.47946 8.19587ZM3.12008 1.00251C1.15527 1.07477 0.967769 2.47123 0.971669 3.95555L0.973623 6.24651C0.973623 6.56681 0.993153 6.89884 0.973623 7.21719H44.0118L44.0138 4.51019C44.0138 3.9106 44.0782 3.21531 43.9395 2.63328C43.5118 0.84816 41.963 1.00246 40.5685 1.00246L3.12008 1.00251Z" fill="#6E4D31"/>
<path d="M5.26315 12.2173C6.61078 12.3404 8.31584 12.1724 9.72987 12.2173C10.058 12.5747 10.1088 13.1665 9.47792 13.2134H6.53072C6.1362 13.2115 5.65574 13.2486 5.27295 13.2173C4.60306 13.1607 4.62448 12.3462 5.26315 12.2173Z" fill="#6E4D31"/>
<path d="M5.26284 15.3151H13.1317C13.4559 15.3151 13.7821 15.2955 14.1043 15.3151C14.4149 15.6549 14.6258 16.1393 14.0008 16.3209H6.17496C5.83902 16.3209 5.29997 16.4244 5.00308 16.233C4.57535 15.9576 4.82339 15.3854 5.26284 15.3151Z" fill="#6E4D31"/>
<path d="M31.7781 17.5182C32.2449 17.4987 32.7175 17.5182 33.1863 17.5182H37.8854C40.19 17.5026 40.1998 17.7604 40.1998 20.188L40.192 23.1763C40.1842 24.2778 40.4302 25.5473 39.0103 25.8676C38.565 25.9087 38.0885 25.8676 37.6393 25.8676L34.7018 25.8657C34.11 25.8657 33.5163 25.8598 32.9226 25.8676C30.7566 25.895 30.6004 25.4848 30.6004 23.3735L30.5984 19.5299C30.5945 18.6529 30.5672 17.6334 31.7781 17.5182ZM32.989 18.4986C31.1942 18.4947 31.6004 18.2975 31.6004 20.313L31.5984 23.811C31.5965 24.0747 31.5809 24.3423 31.6004 24.6059C31.8777 25.104 32.989 24.8715 33.5515 24.8715L37.8366 24.8735C39.2585 24.8754 39.2409 25.0649 39.237 23.6001V20.1411C39.237 19.7173 39.2487 19.2896 39.2213 18.8677C39.1881 18.3501 38.6393 18.4986 38.2662 18.4986L32.989 18.4986Z" fill="#6E4D31"/>
<path d="M6.17843 20.1236C6.44991 20.106 6.72922 20.1216 7.00067 20.1216L19.9924 20.1236C22.3732 20.1177 22.3205 20.6978 22.3185 22.9673C22.3166 24.1899 22.6017 25.6 20.9729 25.8657L7.7756 25.8676C6.61743 25.8676 5.01591 26.1 4.81081 24.4692C4.75808 24.0649 4.79323 23.6294 4.79323 23.2212C4.78933 22.0025 4.48512 20.3169 6.17843 20.1236ZM16.6957 21.1158V24.8735L19.5843 24.8755C20.0706 24.8755 20.7816 25.0258 21.2093 24.7426C21.2523 24.6977 21.2952 24.6528 21.3363 24.6059L21.3382 22.6333C21.3382 22.1353 21.4124 21.5864 21.2093 21.1157C20.7601 21.0923 20.2953 21.1177 19.846 21.1157L16.6957 21.1158ZM6.27193 21.1158C5.94186 21.1802 5.82858 21.3423 5.79929 21.6587C5.76804 22.0044 5.72312 24.227 5.80515 24.4966C5.98092 25.0727 7.20747 24.8735 7.69966 24.8735H10.3031C10.3519 23.6255 10.2699 22.3677 10.3031 21.1158H7.60591C7.16646 21.1158 6.71137 21.0923 6.27193 21.1158ZM11.2679 21.1158V24.8735C12.7445 24.8813 14.2308 24.8364 15.7054 24.8735C15.7288 23.6216 15.6917 22.3677 15.7054 21.1158C14.2269 21.1373 12.7464 21.1158 11.2679 21.1158Z" fill="#6E4D31"/>
</svg>
