<svg width="24" height="24" viewBox="0 0 24 24" fill="none" xmlns="http://www.w3.org/2000/svg">
<path fill-rule="evenodd" clip-rule="evenodd" d="M11.1265 12.8746C10.2319 11.98 9.55753 10.9785 9.10953 9.96227C9.01472 9.74744 9.07053 9.49592 9.23646 9.32995L9.86267 8.70453C10.3757 8.19149 10.3757 7.4659 9.92768 7.01784L9.03002 6.12022C8.43287 5.52308 7.4649 5.52308 6.86776 6.12022L6.36925 6.61872C5.80269 7.18528 5.56644 8.00264 5.71934 8.8131C6.09706 10.811 7.2577 12.9984 9.13017 14.8709C11.0026 16.7434 13.1902 17.9041 15.188 18.2818C15.9984 18.4346 16.8158 18.1985 17.3824 17.6318L17.8801 17.1341C18.4773 16.537 18.4773 15.569 17.8801 14.9718L16.9833 14.0751C16.5352 13.6269 15.8089 13.6269 15.3615 14.0751L14.6712 14.7662C14.5052 14.9321 14.2537 14.988 14.0389 14.8931C13.0227 14.4443 12.021 13.7691 11.1265 12.8746Z" fill="white"/>
</svg>
