<svg width="54" height="54" viewBox="0 0 54 54" fill="none" xmlns="http://www.w3.org/2000/svg">
<path d="M54 27C54 41.9117 41.9117 54 27 54C12.0883 54 0 41.9117 0 27C0 12.0883 12.0883 0 27 0C41.9117 0 54 12.0883 54 27Z" fill="#F6F1EB"/>
<path fill-rule="evenodd" clip-rule="evenodd" d="M13.4152 29.5707H11.6515C8.90033 29.5707 10.8991 23.7035 13.2153 23.7035H16.0019C16.4486 23.7035 17.2363 23.7861 17.6244 22.6765L18.224 20.9529H14.4028C12.3335 20.9529 10.7227 21.6847 9.5587 22.9126C7.5481 25.0139 6.86629 28.2958 7.34828 29.8657C7.80683 31.3179 9.05313 32.274 11.0048 32.2976L12.5216 32.3095H14.3911L14.8496 30.9283C15.1905 29.9484 14.4262 29.5707 13.4152 29.5707ZM34.8843 27.1388L35.4605 25.2618H29.3113C28.2885 25.2618 27.8299 25.5451 27.6535 26.1354L27.0773 28.0124H33.2266C34.2495 28.0124 34.708 27.7291 34.8843 27.1388ZM26.1604 30.4443L25.5842 32.3212H31.7333C32.7445 32.3212 33.2147 32.038 33.3911 31.4477L33.9673 29.5707H27.818C26.807 29.5707 26.3485 29.854 26.1604 30.4443ZM36.3188 22.8417L36.8949 20.9648H30.7457C29.7228 20.9648 29.2643 21.2479 29.0879 21.8382L28.5117 23.7153H34.661C35.6722 23.7153 36.1306 23.4319 36.3188 22.8417ZM27.0303 23.2196C26.7717 21.4724 25.8429 20.9648 23.5854 20.9648H19.4703L17.0718 28.0124H18.5885C19.4938 28.0124 19.9523 28.0242 20.4345 26.7257L21.4337 23.7035H22.9622C24.2674 23.7035 23.9734 25.3445 23.315 26.938C22.7271 28.343 21.7042 29.5824 20.4696 29.5824H17.9183C16.8954 29.5824 16.4251 29.8657 16.237 30.456L15.6021 32.3331H17.4714L19.3056 32.3212C20.9282 32.3095 22.2568 32.1915 23.8088 30.7865C25.4548 29.2874 27.3596 25.4389 27.0303 23.2196ZM47.7 20.9529H44.1375L40.7865 24.5298C40.3986 24.943 39.9988 25.3562 39.6109 25.8402H39.5756L41.2451 20.9529H38.341L34.4259 32.3212H37.3298L38.5761 28.7443L39.8694 27.6464L40.8925 30.8811C41.2098 31.8845 41.5391 32.3212 42.2445 32.3212H44.4667L42.1858 25.97L47.7 20.9529Z" fill="#282828"/>
</svg>
