<svg width="26" height="26" viewBox="0 0 26 26" fill="none" xmlns="http://www.w3.org/2000/svg">
<path d="M14.6561 8.14648L10.2578 11.4398" stroke="#6E4D31" stroke-linecap="round" stroke-linejoin="round"/>
<path d="M17.7735 5.02903C18.6332 5.88871 18.6332 7.28252 17.7735 8.14219C16.9139 9.00186 15.52 9.00186 14.6604 8.14219C13.8007 7.28251 13.8007 5.8887 14.6604 5.02903C15.5201 4.16936 16.9139 4.16936 17.7735 5.02903" stroke="#6E4D31" stroke-linecap="round" stroke-linejoin="round"/>
<path d="M14.6561 17.8529L10.2578 14.5596" stroke="#6E4D31" stroke-linecap="round" stroke-linejoin="round"/>
<path d="M17.7735 17.8576C18.6332 18.7173 18.6332 20.1111 17.7735 20.9708C16.9139 21.8305 15.52 21.8305 14.6604 20.9708C13.8007 20.1111 13.8007 18.7173 14.6604 17.8576C15.5201 16.998 16.9139 16.998 17.7735 17.8576" stroke="#6E4D31" stroke-linecap="round" stroke-linejoin="round"/>
<path d="M10.2542 11.4459C11.113 12.3047 11.113 13.6971 10.2542 14.556C9.39538 15.4148 8.00294 15.4148 7.14412 14.556C6.28529 13.6971 6.28529 12.3047 7.14412 11.4459C8.00295 10.5871 9.39539 10.5871 10.2542 11.4459" stroke="#6E4D31" stroke-linecap="round" stroke-linejoin="round"/>
</svg>
