<svg width="102" height="102" viewBox="0 0 102 102" fill="none" xmlns="http://www.w3.org/2000/svg">
<rect width="102" height="102" rx="51" fill="#F6F1EB"/>
<path d="M37.9023 70.233V32.5237H41.3846V66.7966H48.1201V70.233H37.9023Z" fill="#282828"/>
<path d="M50.4461 38.526C50.4461 34.2496 52.4163 32.1113 56.3568 32.1113C60.3278 32.1113 62.3133 34.2496 62.3133 38.526V64.2307C62.3133 68.5072 60.3278 70.6454 56.3568 70.6454C52.4163 70.6454 50.4461 68.5072 50.4461 64.2307V38.526ZM58.8311 38.526C58.8311 36.6016 58.0063 35.6394 56.3568 35.6394C54.7379 35.6394 53.9284 36.6016 53.9284 38.526V64.2307C53.9284 66.2162 54.7379 67.209 56.3568 67.209C58.0063 67.209 58.8311 66.2162 58.8311 64.2307V38.526Z" fill="#282828"/>
</svg>
