<svg width="18" height="18" viewBox="0 0 18 18" fill="none" xmlns="http://www.w3.org/2000/svg">
<path fill-rule="evenodd" clip-rule="evenodd" d="M3.72633 8.39048C6.56248 7.15481 8.4537 6.34018 9.39997 5.94659C12.1018 4.82282 12.6632 4.62761 13.0291 4.62116C13.1096 4.61974 13.2895 4.63969 13.4061 4.73427C13.5045 4.81414 13.5316 4.92202 13.5446 4.99774C13.5575 5.07346 13.5737 5.24596 13.5608 5.38074C13.4144 6.9191 12.7809 10.6523 12.4586 12.3753C12.3222 13.1043 12.0537 13.3488 11.7937 13.3727C11.2288 13.4247 10.7997 12.9993 10.2525 12.6407C9.39627 12.0794 8.91254 11.73 8.08138 11.1822C7.12084 10.5492 7.74352 10.2014 8.29093 9.63279C8.43419 9.48399 10.9235 7.2198 10.9717 7.0144C10.9777 6.98871 10.9833 6.89296 10.9264 6.84239C10.8695 6.79183 10.7855 6.80912 10.725 6.82287C10.6391 6.84236 9.27118 7.74649 6.62126 9.53526C6.23299 9.80188 5.88131 9.93178 5.56621 9.92497C5.21884 9.91747 4.55064 9.72856 4.0539 9.56709C3.44463 9.36904 2.96039 9.26433 3.00256 8.92798C3.02452 8.75279 3.26578 8.57363 3.72633 8.39048Z" fill="white"/>
</svg>
