<svg width="24" height="24" viewBox="0 0 24 24" fill="none" xmlns="http://www.w3.org/2000/svg">
<path d="M11.5464 11.5877C13.6245 11.5877 15.3359 9.90734 15.3359 7.81294C15.3359 5.71854 13.6245 4.0625 11.5464 4.0625C9.46829 4.0625 7.7569 5.74289 7.7569 7.8373C7.7569 9.9317 9.46829 11.5877 11.5464 11.5877ZM11.5464 4.79311C13.2334 4.79311 14.6025 6.1569 14.6025 7.8373C14.6025 9.51769 13.2334 10.8815 11.5464 10.8815C9.85947 10.8815 8.49035 9.51769 8.49035 7.8373C8.49035 6.1569 9.85947 4.79311 11.5464 4.79311ZM18.0497 18.5041C17.2918 15.3382 14.6392 11.5877 11.5587 11.5877C8.47821 11.5877 5.80101 15.3138 5.04311 18.5041L4.94531 18.9425H18.172L18.0497 18.5041ZM5.87436 18.2362C6.68116 15.6304 8.95487 12.4355 11.5464 12.4355C14.138 12.4355 16.4117 15.6304 17.2185 18.2362H5.87436Z" fill="white"/>
</svg>
