<svg width="12" height="12" viewBox="0 0 12 12" fill="none" xmlns="http://www.w3.org/2000/svg">
<path fill-rule="evenodd" clip-rule="evenodd" d="M1.05971 11.4648C1.11068 11.5134 1.17741 11.5391 1.24516 11.5391C1.2805 11.5391 1.31614 11.5321 1.34997 11.5178L3.65668 10.5394C4.53729 11.0875 5.54433 11.3764 6.57825 11.3765C8.00458 11.3765 9.3391 10.8275 10.3357 9.83095C12.4298 7.73688 12.3872 4.28704 10.2408 2.14063C9.18276 1.08264 7.78624 0.5 6.3084 0.5C4.8818 0.5 3.5472 1.04894 2.55044 2.0457C1.66596 2.93018 1.12325 4.10986 1.02233 5.36744C0.926599 6.56058 1.23034 7.76803 1.87896 8.78326L0.99325 11.1773C0.956084 11.2778 0.982186 11.3908 1.05971 11.4648ZM8.00142 8.78563H8.00179C8.34498 8.78534 8.70624 8.60923 9.01902 8.28985C9.23438 8.06995 9.45167 7.74534 9.45167 7.51581C9.45167 7.16206 9.28439 7.06791 9.03119 6.92541L9.0311 6.92535C8.96937 6.89063 8.89942 6.85126 8.81515 6.80057C8.76865 6.77248 8.71028 6.73419 8.64844 6.69361L8.64842 6.6936L8.64627 6.69219C8.32458 6.48104 8.08082 6.33157 7.87335 6.33157C7.82475 6.33157 7.7788 6.3398 7.73688 6.35596C7.55511 6.42597 7.40581 6.61296 7.26142 6.79385L7.26082 6.7946C7.20797 6.86079 7.13264 6.95512 7.08687 6.99733C6.90457 6.96414 6.52013 6.72601 6.10533 6.31121C5.68997 5.89587 5.45177 5.51097 5.41906 5.32916C5.46116 5.28331 5.5559 5.20764 5.62251 5.15444L5.62251 5.15443L5.62253 5.15442L5.62367 5.15351C5.80382 5.00971 5.99009 4.86099 6.0605 4.67976C6.1503 4.44689 5.9857 4.16844 5.72435 3.77025C5.6832 3.7076 5.64436 3.6484 5.61617 3.60173C5.56533 3.51724 5.52602 3.44737 5.49134 3.38572L5.49132 3.38568L5.49127 3.3856L5.49119 3.38544C5.34867 3.13217 5.25452 2.96484 4.90071 2.96484C4.67108 2.96484 4.34641 3.18201 4.1265 3.3972C3.80687 3.71001 3.63086 4.07144 3.63086 4.41509C3.63147 5.34844 4.15238 6.41883 5.06005 7.35175L5.06477 7.35644C5.99771 8.26411 7.06807 8.78505 8.00142 8.78563Z" fill="white"/>
</svg>
