<svg width="54" height="54" viewBox="0 0 54 54" fill="none" xmlns="http://www.w3.org/2000/svg">
<path d="M27 5.125C16.6444 5.125 8.25 13.5194 8.25 23.875C8.25 29.0509 10.3472 33.7375 13.7391 37.1303C17.1319 40.525 25.125 45.4375 25.5938 50.5938C25.664 51.3669 26.2237 52 27 52C27.7763 52 28.336 51.3669 28.4062 50.5938C28.875 45.4375 36.8681 40.525 40.2609 37.1303C43.6528 33.7375 45.75 29.0509 45.75 23.875C45.75 13.5194 37.3556 5.125 27 5.125Z" fill="#6E4D31"/>
<path d="M26.9922 30.438C30.6166 30.438 33.5546 27.4998 33.5546 23.8755C33.5546 20.2511 30.6166 17.313 26.9922 17.313C23.3678 17.313 20.4297 20.2511 20.4297 23.8755C20.4297 27.4998 23.3678 30.438 26.9922 30.438Z" fill="#F6F1EB"/>
</svg>
