<svg width="288" height="16" viewBox="0 0 288 16" fill="none" xmlns="http://www.w3.org/2000/svg">
<g clip-path="url(#clip0_605_17582)">
<rect x="288" y="16" width="1" height="7" transform="rotate(180 288 16)" fill="#282828"/>
<rect x="265" y="16" width="1" height="7" transform="rotate(180 265 16)" fill="#282828"/>
<rect x="242" y="16" width="1" height="7" transform="rotate(180 242 16)" fill="#282828"/>
<rect x="219" y="16" width="1" height="16" transform="rotate(180 219 16)" fill="#282828"/>
<rect x="127" y="16" width="1" height="16" transform="rotate(180 127 16)" fill="#282828"/>
<rect x="196" y="16" width="1" height="7" transform="rotate(180 196 16)" fill="#282828"/>
<rect x="173" y="16" width="1" height="7" transform="rotate(180 173 16)" fill="#282828"/>
<rect x="150" y="16" width="1" height="7" transform="rotate(180 150 16)" fill="#282828"/>
<rect x="104" y="16" width="1" height="7" transform="rotate(180 104 16)" fill="#282828"/>
<rect x="81" y="16" width="1" height="7" transform="rotate(180 81 16)" fill="#282828"/>
<rect x="58" y="16" width="1" height="7" transform="rotate(180 58 16)" fill="#282828"/>
<rect x="35" y="16" width="1" height="16" transform="rotate(180 35 16)" fill="#282828"/>
<rect x="12" y="16" width="1" height="7" transform="rotate(180 12 16)" fill="#282828"/>
</g>
<defs>
<clipPath id="clip0_605_17582">
<rect width="288" height="16" fill="white" transform="translate(288 16) rotate(180)"/>
</clipPath>
</defs>
</svg>
