<svg width="140" height="140" viewBox="0 0 140 140" fill="none" xmlns="http://www.w3.org/2000/svg">
<path d="M17.5234 105.328L18.657 103.375L66.9118 131.381L65.7794 133.334L17.5234 105.328Z" fill="#6E4D31"/>
<path d="M126.692 96.8586V43.0726C127.904 42.8086 128.989 42.1378 129.766 41.1718C130.544 40.2059 130.968 39.0028 130.967 37.7627C130.967 34.7674 128.543 32.3287 125.563 32.3287C123.989 32.3287 122.584 33.0208 121.595 34.1047L75.1146 7.10048C76.2267 3.66597 73.6435 0 69.999 0C66.3545 0 63.7713 3.66597 64.8834 7.10048L18.5479 34.0211C17.5566 32.8379 16.0911 32.069 14.4348 32.069C11.4553 32.0702 9.03125 34.5077 9.03125 37.5042C9.03041 38.7443 9.45401 39.9473 10.2316 40.9133C11.0093 41.8793 12.0941 42.55 13.3058 42.814V96.8586C12.0941 97.1226 11.0093 97.7933 10.2316 98.7593C9.45401 99.7253 9.03041 100.928 9.03125 102.168C9.03125 105.164 11.4553 107.602 14.4348 107.602C15.1737 107.6 15.9042 107.446 16.5805 107.148C17.2569 106.85 17.8644 106.416 18.365 105.873L64.8822 132.9C63.7712 136.334 66.3545 140 69.999 140C73.6435 140 76.2267 136.334 75.1146 132.9L121.632 105.873C122.132 106.416 122.74 106.85 123.416 107.148C124.093 107.446 124.823 107.6 125.562 107.602C128.542 107.602 130.966 105.165 130.966 102.168C130.966 100.928 130.543 99.7255 129.766 98.7596C128.988 97.7936 127.904 97.1228 126.692 96.8586ZM125.563 34.5879C127.297 34.5879 128.709 36.0127 128.709 37.7639C128.709 39.515 127.297 40.9398 125.563 40.9398C123.829 40.9398 122.419 39.515 122.419 37.7639C122.419 36.0127 123.829 34.5879 125.563 34.5879ZM73.9935 9.05935L120.46 36.0556C120.089 37.1477 120.085 38.3308 120.446 39.4258L100.199 51.1734L71.128 34.2831V10.7439C72.2369 10.4985 73.2399 9.90895 73.9935 9.05935ZM68.87 103.107L40.949 86.8847V54.2071L68.87 70.6458V103.107ZM70.0024 68.6926L42.2542 52.3566L69.999 36.2374L97.9516 52.4774L70.0024 68.6926ZM71.128 70.6503L99.049 54.451V86.8847L71.128 103.107V70.6503ZM69.999 2.25806C71.7332 2.25806 73.1445 3.6829 73.1445 5.43403C73.1445 7.18516 71.7332 8.60887 69.999 8.60887C68.2648 8.60887 66.8535 7.18403 66.8535 5.4329C66.8535 3.68177 68.2648 2.25806 69.999 2.25806ZM19.6058 36.0173L66.0045 9.05935C66.7581 9.90895 67.7611 10.4985 68.87 10.7439V34.2831L40.0232 51.0424L19.5979 39.0182C19.8892 38.0395 19.8919 36.9975 19.6058 36.0173ZM11.2893 37.5042C11.2893 35.7531 12.7006 34.3282 14.4348 34.3282C16.169 34.3282 17.5792 35.7531 17.5792 37.5042C17.5792 39.2553 16.169 40.6802 14.4348 40.6802C12.7006 40.6802 11.2893 39.2553 11.2893 37.5042ZM14.4348 105.344C12.7006 105.344 11.2893 103.92 11.2893 102.168C11.2893 100.417 12.7006 98.9924 14.4348 98.9924C16.169 98.9924 17.5792 100.417 17.5792 102.168C17.5792 103.92 16.169 105.344 14.4348 105.344ZM66.0045 130.941L19.52 103.933C20.5632 100.905 18.7172 97.5371 15.5638 96.8586V42.814C16.7246 42.5568 17.7673 41.9219 18.5287 41.0087L38.6909 52.8782V87.5339C38.6909 87.9358 38.9043 88.3084 39.2532 88.5094L68.87 105.717V129.256C67.7611 129.501 66.7581 130.091 66.0045 130.941ZM69.999 137.742C68.2648 137.742 66.8535 136.317 66.8535 134.566C66.8535 132.815 68.2648 131.39 69.999 131.39C71.7332 131.39 73.1445 132.815 73.1445 134.566C73.1445 136.317 71.7332 137.742 69.999 137.742ZM120.478 103.933L73.9935 130.941C73.2402 130.091 72.2371 129.502 71.128 129.257V105.717L100.745 88.5094C100.916 88.4102 101.058 88.2679 101.156 88.0967C101.255 87.9255 101.307 87.7314 101.307 87.5339V53.1413L121.566 41.3869C122.32 42.2378 123.323 42.8279 124.433 43.0726V96.8586C121.28 97.5371 119.435 100.904 120.478 103.933ZM125.563 105.344C123.829 105.344 122.419 103.92 122.419 102.168C122.419 100.417 123.829 98.9924 125.563 98.9924C127.297 98.9924 128.709 100.417 128.709 102.168C128.709 103.92 127.297 105.344 125.563 105.344Z" fill="#6E4D31"/>
</svg>
